<svg xmlns="http://www.w3.org/2000/svg" viewBox="34.25 67.89 142.7 166.45"><path fill="#7e230e" d="M176.94707 208.63373a13.25693 13.25693 0 0 1-13.25693 13.25693 13.25693 13.25693 0 0 1-13.25693-13.25693 13.25693 13.25693 0 0 1 13.25693-13.25693 13.25693 13.25693 0 0 1 13.25693 13.25693m-36.82797-22.06321c-3.88131.18756-7.95924.73188-12.19513 1.41594-9.35352 1.5105-19.51798 3.76554-29.357893 5.20123-6.12401 3.74669-12.390947 7.15317-18.562175 10.10326-.91781 1.69034-1.829311 3.33696-2.737817 4.93562 12.124687 13.13156 32.930975 18.35436 51.104895 18.32808 10.12434-.0147 19.55113-1.65336 26.76477-5.17436a15.350814 15.350814 0 0 1-5.59346-6.78977c-5.42754 2.15913-13.01737 3.48565-21.18268 3.49746-16.12733.0233-34.012958-5.13724-44.076382-15.11536 15.397871-.2667 31.518992-4.45153 44.990022-6.62698 6.08405-.98251 11.60479-1.51526 16.03158-1.27899 1.47559.0788 2.82813.24267 4.04109.50384 1.69632.36525 3.10464.81871 4.28243 1.46968a15.350814 15.350814 0 0 1 8.39277-3.66644c-2.88999-3.15354-6.73494-5.1856-10.89236-6.08077-3.4447-.74171-7.12835-.90999-11.00966-.72244"/><path fill="#b23114" d="m95.01042419 80.14636145 9.40408515-1.66381173 1.25559257-9.46723778a1.29920513 1.29920513 0 0 1 2.2826925-.66487797l6.14294498 7.3122713 8.82666416-3.64624416a1.29920524 1.29920524 0 0 1 1.7171451 1.64443306l-3.2611394 8.97608227 7.57107158 5.8209936a1.29920524 1.29920524 0 0 1-.5655451 2.30930875l-9.4040844 1.66381096-1.2555918 9.46723549a1.29920524 1.29920524 0 0 1-2.2826902.66487568l-6.14294575-7.31226902-8.82667028 3.64624876a1.29920513 1.29920513 0 0 1-1.71716802-1.64441013l3.2611394-8.97608074-7.57106853-5.82099667a1.2992061 1.2992061 0 0 1 .5655451-2.30930874zm.30055734 5.42205567c-.6434977.36727144-1.29946512.7560829-1.96939563 1.16582752-5.4474231 3.33173367-11.46677369 8.22290282-17.02531613 14.66835785-11.11707495 12.8909047-20.34146569 32.18019422-18.19888334 56.80065471 1.00882867 11.59250345 4.69661363 24.36871207 11.55639428 38.10362437-10.18054025 4.49944968-19.63256766 8.05453097-26.25213799 11.91761506-3.75364307 2.1905697-6.94692504 4.54201992-8.49405741 8.33799174-1.5471316 3.79597258-.33274049 8.3386704 2.5626346 11.99616912 2.90761782 3.67298193 6.9180397 5.94979419 11.07012104 5.76761454 4.15208654-.18217445 7.74043346-2.3816414 11.06082523-5.4120812 6.60314737-6.0265374 12.841849-16.05300006 19.40398155-28.27733732l.03924494-.066682c.01031755-.01765448.01915244-.03862587.02944707-.05630329.01429173-.0266728.02855289-.0497077.04288283-.07649514l5.99394875-11.17968036-.14055571.0646032c8.10433802-16.19968678 15.1130339-34.64596606 20.72486844-51.41393936 4.17453602-12.47335619 7.35614921-24.02115022 8.93640247-33.27031303l-5.924695-7.05228948-1.7280626.7136525c-.06619516.64184919-.14610121 1.30934706-.24081716 1.99936166-1.20069246 8.74696216-4.50287893 21.27476831-9.07024337 34.92189883-5.97243396 17.84544278-13.57782022 37.50447154-22.128881 53.8416692-5.32962028-11.5280271-8.17988547-22.09857718-9.00617132-31.59341558-1.92925346-22.1691233 6.25200922-39.03031688 16.17575768-50.53748189 4.96187041-5.75357868 10.37124465-10.12402679 15.03163907-12.97440204.05529447-.03381866.11032909-.06749975.1653637-.10076815l1.78283509-4.90719193zM65.10559088 207.5371967c-4.0342478 6.51922328-7.9166433 12.13416303-11.19156773 15.12311225-2.5163936 2.29664795-4.5414513 3.15504969-5.72626772 3.207041-1.18481106.05199668-2.23537618-.26146679-4.05866678-2.56469963-1.83553717-2.31868931-1.6625293-2.80683057-1.36167083-3.5450037.3008516-.73816474 1.84543285-2.42487457 4.92217839-4.2204163 3.96979362-2.3167175 10.34866983-5.00477387 17.41599467-8.00003362"/><path fill="#e63f19" d="M135.01351 116.39587h16.3765a4.2333332 4.2333332 45 0 1 4.23333 4.23333v16.37649a4.2333332 4.2333332 135 0 1-4.23333 4.23333h-16.3765a4.2333332 4.2333332 45 0 1-4.23333-4.23333V120.6292a4.2333332 4.2333332 135 0 1 4.23333-4.23333m-6.32524 7.46375c-3.54519.61305-7.43432 1.5967-11.60808 2.86494-2.01718.61294-4.09655 1.29454-6.22081 2.03864-.96753 3.18933-2.01691 6.46883-3.13676 9.8149-.0499.14916-.0997.29861-.14986.44804 4.1731-1.63941 8.21292-3.05802 11.97033-4.19974 3.3048-1.0042 6.40492-1.78735 9.14518-2.32958zm-33.114259 11.00502c-8.470843 3.77616-17.03181 8.23676-24.780916 13.04726-.806001.50035-1.603308 1.00456-2.390552 1.51205-.05696 2.53728.02413 5.15737.259416 7.86102.05816.66832.12655 1.34215.204638 2.02159 2.029361-1.41647 4.169387-2.82195 6.391342-4.2013 5.149202-3.19652 10.74194-6.25858 16.427421-9.05371 1.360251-3.77529 2.658796-7.51944 3.888651-11.18691m41.036769 8.46666c-3.11945 6.38445-8.80261 13.57579-16.40778 20.59668-8.82607 8.14799-19.87563 16.01493-31.19913 22.58467h-.000517l-7.281209 13.5847c15.659234-7.78624 31.769426-18.45025 44.225206-29.94908 9.30056-8.58603 16.89318-17.65129 20.17448-26.81697zm-80.594561 15.13086c-1.472612 1.24131-2.863635 2.49476-4.160986 3.75843-5.105008 4.97249-8.916493 10.07336-10.06812 15.79697-1.151626 5.72361 1.351848 11.88031 6.935494 15.92409 2.602463 1.88475 5.804005 3.49048 9.706901 4.8581 2.702821-1.14648 5.510657-2.32425 8.3752-3.5636-.523661-1.09238-1.028074-2.17878-1.513086-3.25975-5.409801-1.47445-9.247945-3.18595-11.603943-4.89221-3.706363-2.68421-4.182462-4.50051-3.59978-7.39645.571787-2.8418 3.120599-6.90616 7.427453-11.15953-.714459-3.43977-1.211524-6.79677-1.499133-10.06605"/></svg>