<?xml version="1.0" encoding="UTF-8" standalone="no"?>
<!-- Created with Inkscape (http://www.inkscape.org/) -->

<svg
   width="210mm"
   height="297mm"
   viewBox="0 0 210 297"
   version="1.1"
   id="svg1"
   sodipodi:docname="drawing.svg"
   inkscape:version="1.4.4 (dcaf3e7d9e, 2026-05-05)"
   xmlns:inkscape="http://www.inkscape.org/namespaces/inkscape"
   xmlns:sodipodi="http://sodipodi.sourceforge.net/DTD/sodipodi-0.dtd"
   xmlns="http://www.w3.org/2000/svg"
   xmlns:svg="http://www.w3.org/2000/svg">
  <sodipodi:namedview
     id="namedview1"
     pagecolor="#ffffff"
     bordercolor="#000000"
     borderopacity="0.25"
     inkscape:showpageshadow="2"
     inkscape:pageopacity="0.0"
     inkscape:pagecheckerboard="0"
     inkscape:deskcolor="#d1d1d1"
     inkscape:document-units="mm"
     inkscape:zoom="1.0116647"
     inkscape:cx="396.87062"
     inkscape:cy="627.18409"
     inkscape:window-width="1920"
     inkscape:window-height="1044"
     inkscape:window-x="0"
     inkscape:window-y="0"
     inkscape:window-maximized="1"
     inkscape:current-layer="layer1" />
  <defs
     id="defs1">
    <inkscape:path-effect
       effect="fillet_chamfer"
       id="path-effect16"
       is_visible="true"
       lpeversion="1"
       nodesatellites_param="F,0,0,1,0,4.2333332,0,1 @ F,0,0,1,0,4.2333332,0,1 @ F,0,0,1,0,4.2333332,0,1 @ F,0,0,1,0,4.2333332,0,1"
       radius="16"
       unit="px"
       method="auto"
       mode="F"
       chamfer_steps="1"
       flexible="false"
       use_knot_distance="true"
       apply_no_radius="true"
       apply_with_radius="true"
       only_selected="false"
       hide_knots="false" />
    <inkscape:path-effect
       effect="fillet_chamfer"
       id="path-effect12"
       is_visible="true"
       lpeversion="1"
       nodesatellites_param="F,0,0,1,0,2.7261699,0,1 @ F,0,0,1,0,0,0,1 @ F,0,0,1,0,2.7261699,0,1 @ F,0,0,1,0,0,0,1 @ F,0,0,1,0,2.7261699,0,1 @ F,0,0,1,0,0,0,1 @ F,0,0,1,0,2.7261699,0,1 @ F,0,0,1,0,0,0,1 @ F,0,0,1,0,2.7261699,0,1 @ F,0,0,1,0,0,0,1 @ F,0,0,1,0,2.7261699,0,1 @ F,0,0,1,0,0,0,1"
       radius="10"
       unit="px"
       method="auto"
       mode="F"
       chamfer_steps="1"
       flexible="false"
       use_knot_distance="true"
       apply_no_radius="true"
       apply_with_radius="true"
       only_selected="false"
       hide_knots="false" />
    <inkscape:path-effect
       effect="fillet_chamfer"
       id="path-effect10"
       is_visible="true"
       lpeversion="1"
       nodesatellites_param="F,0,0,1,0,2.7261699,0,1 @ F,0,0,1,0,0,0,1 @ F,0,0,1,0,2.7261699,0,1 @ F,0,0,1,0,0,0,1 @ F,0,0,1,0,2.7261699,0,1 @ F,0,0,1,0,0,0,1 @ F,0,0,1,0,2.7261699,0,1 @ F,0,0,1,0,0,0,1 @ F,0,0,1,0,2.7261699,0,1 @ F,0,0,1,0,0,0,1 @ F,0,0,1,0,2.7261699,0,1 @ F,0,0,1,0,0,0,1"
       radius="10"
       unit="px"
       method="auto"
       mode="F"
       chamfer_steps="1"
       flexible="false"
       use_knot_distance="true"
       apply_no_radius="true"
       apply_with_radius="true"
       only_selected="false"
       hide_knots="false" />
    <inkscape:path-effect
       effect="fillet_chamfer"
       id="path-effect9"
       is_visible="true"
       lpeversion="1"
       nodesatellites_param="F,0,0,1,0,0,0,1 @ F,0,0,1,0,0,0,1 @ F,0,0,1,0,0,0,1 @ F,0,0,1,0,0,0,1 @ F,0,0,1,0,0,0,1 @ F,0,0,1,0,0,0,1 @ F,0,0,1,0,0,0,1 @ F,0,0,1,0,0,0,1 @ F,0,0,1,0,0,0,1 @ F,0,0,1,0,0,0,1 @ F,0,0,1,0,0,0,1 @ F,0,0,1,0,0,0,1"
       radius="0"
       unit="px"
       method="auto"
       mode="F"
       chamfer_steps="1"
       flexible="false"
       use_knot_distance="true"
       apply_no_radius="true"
       apply_with_radius="true"
       only_selected="false"
       hide_knots="false" />
    <inkscape:path-effect
       effect="fillet_chamfer"
       id="path-effect8"
       is_visible="true"
       lpeversion="1"
       nodesatellites_param="F,0,0,1,0,1.0904679,0,1 @ F,0,0,1,0,1.0904679,0,1 @ F,0,0,1,0,1.0904679,0,1 @ F,0,0,1,0,1.0904679,0,1 @ F,0,0,1,0,1.0904679,0,1 @ F,0,0,1,0,1.0904679,0,1 @ F,0,0,1,0,1.0904679,0,1 @ F,0,0,1,0,1.0904679,0,1 @ F,0,0,1,0,1.0904679,0,1 @ F,0,0,1,0,1.0904679,0,1 @ F,0,0,1,0,1.0904679,0,1 @ F,0,0,1,0,1.0904679,0,1"
       radius="4"
       unit="px"
       method="auto"
       mode="F"
       chamfer_steps="1"
       flexible="false"
       use_knot_distance="true"
       apply_no_radius="true"
       apply_with_radius="true"
       only_selected="false"
       hide_knots="false" />
    <inkscape:path-effect
       effect="fillet_chamfer"
       id="path-effect7"
       is_visible="true"
       lpeversion="1"
       nodesatellites_param="F,0,0,1,0,0,0,1 @ F,0,0,1,0,0,0,1 @ F,0,0,1,0,0,0,1 @ F,0,0,1,0,0,0,1 @ IF,0,0,1,0,0,0,1 @ F,0,0,1,0,0,0,1 @ IF,0,0,1,0,0,0,1 @ F,0,0,1,0,0,0,1 @ F,0,0,1,0,0,0,1 @ F,0,0,1,0,0,0,1 @ F,0,0,1,0,0,0,1 @ F,0,0,1,0,0,0,1"
       radius="45"
       unit="px"
       method="auto"
       mode="F"
       chamfer_steps="1"
       flexible="false"
       use_knot_distance="true"
       apply_no_radius="true"
       apply_with_radius="true"
       only_selected="true"
       hide_knots="false" />
  </defs>
  <g
     inkscape:label="Layer 1"
     inkscape:groupmode="layer"
     id="layer1"
     style="display:inline">
    <path
       id="path1"
       style="fill:#7e230e;stroke-width:0.28844;stroke-linecap:round;stroke-linejoin:round;fill-opacity:1"
       d="m 176.94707,208.63373 a 13.25693,13.25693 0 0 1 -13.25693,13.25693 13.25693,13.25693 0 0 1 -13.25693,-13.25693 13.25693,13.25693 0 0 1 13.25693,-13.25693 13.25693,13.25693 0 0 1 13.25693,13.25693 z M 140.1191,186.57052 c -3.88131,0.18756 -7.95924,0.73188 -12.19513,1.41594 -9.35352,1.5105 -19.51798,3.76554 -29.357893,5.20123 -6.12401,3.74669 -12.390947,7.15317 -18.562175,10.10326 -0.91781,1.69034 -1.829311,3.33696 -2.737817,4.93562 12.124687,13.13156 32.930975,18.35436 51.104895,18.32808 10.12434,-0.0147 19.55113,-1.65336 26.76477,-5.17436 a 15.350814,15.350814 0 0 1 -5.59346,-6.78977 c -5.42754,2.15913 -13.01737,3.48565 -21.18268,3.49746 -16.12733,0.0233 -34.012958,-5.13724 -44.076382,-15.11536 15.397871,-0.2667 31.518992,-4.45153 44.990022,-6.62698 6.08405,-0.98251 11.60479,-1.51526 16.03158,-1.27899 1.47559,0.0788 2.82813,0.24267 4.04109,0.50384 1.69632,0.36525 3.10464,0.81871 4.28243,1.46968 a 15.350814,15.350814 0 0 1 8.39277,-3.66644 c -2.88999,-3.15354 -6.73494,-5.1856 -10.89236,-6.08077 -3.4447,-0.74171 -7.12835,-0.90999 -11.00966,-0.72244 z" />
    <path
       id="path6"
       style="display:inline;fill:#b23114;fill-opacity:1;stroke:none;stroke-width:3.91674;stroke-linecap:square;stroke-linejoin:miter;stroke-dasharray:none;stroke-opacity:1"
       transform="matrix(-0.76426357,0.76426357,-0.76426357,-0.76426357,232.82438,63.470031)"
       d="m 101.07134,79.25121 -7.24089,-5.063877 -7.015139,5.37226 a 1.2020418,1.2020418 28.760788 0 1 -1.928373,-1.058414 l 0.765002,-8.802733 -8.160083,-3.389158 a 1.2020419,1.2020419 88.760787 0 1 -0.04757,-2.199227 l 8.005891,-3.738856 -1.144944,-8.761418 a 1.2020419,1.2020419 148.76079 0 1 1.8808,-1.140813 l 7.240889,5.063877 7.01514,-5.372259 a 1.2020419,1.2020419 28.760791 0 1 1.92837,1.058414 l -0.765,8.802732 8.16009,3.389159 a 1.2020418,1.2020418 88.760786 0 1 0.0476,2.199227 l -8.00589,3.738855 1.14494,8.761418 a 1.2020427,1.2020427 148.76081 0 1 -1.8808,1.140813 z m 3.35061,-3.743874 c 0.66127,0.180714 1.34479,0.355494 2.05114,0.525714 5.74354,1.384136 12.88147,2.12222 20.73478,1.54198 15.70661,-1.160483 34.36096,-7.745187 49.06654,-25.254227 6.9241,-8.244101 12.86997,-19.01525 17.36785,-32.488804 9.60401,3.716709 18.11358,7.574636 24.97159,9.377997 3.88885,1.022601 7.51635,1.573348 11.01194,0.102102 3.49559,-1.471247 5.67305,-5.237676 6.17165,-9.524727 0.50072,-4.30519 -0.63345,-8.418453 -3.46903,-11.0156602 -2.83558,-2.597214 -6.62211,-3.5058534 -10.77698,-3.6955471 -8.26265,-0.3772324 -18.90372,2.1008139 -31.19429,5.8051673 l -0.0693,0.01795 c -0.0183,0.0048 -0.0378,0.01274 -0.0561,0.01757 -0.0268,0.0081 -0.0512,0.01384 -0.0781,0.02199 l -11.23541,3.392633 0.13422,0.04969 C 163.15216,19.67734 146.49889,27.160088 131.85747,34.458708 120.96601,39.888 111.32967,45.361361 104.2448,50.37855 l -0.7377,8.489862 1.59743,0.663652 c 0.46322,-0.376607 0.95219,-0.761024 1.46558,-1.150483 6.508,-4.936955 16.86437,-10.972582 28.78074,-16.912788 15.58224,-7.767614 33.41929,-15.653403 49.7018,-20.747285 -4.05515,11.028687 -9.10595,19.808914 -14.77713,26.561247 -13.24142,15.76575 -29.62481,21.444374 -43.64544,22.480284 -7.01031,0.517955 -13.40851,-0.161736 -18.32224,-1.345895 -0.0583,-0.01405 -0.11634,-0.02802 -0.17411,-0.04226 l -4.37678,2.044031 z m 99.55608,-60.033863 c 6.90434,-1.625732 13.11773,-2.759205 17.21571,-2.572113 3.14881,0.143763 5.03524,0.907018 5.84439,1.64814 0.80915,0.741115 1.29138,1.633496 0.97739,4.333169 -0.31609,2.717797 -0.74863,2.923965 -1.42839,3.210067 -0.67975,0.286101 -2.79374,0.379085 -5.98131,-0.45911 -4.11279,-1.081483 -10.0446,-3.496108 -16.62779,-6.160153 z" />
    <path
       id="path16"
       style="fill:#e63f19;fill-opacity:1;stroke:none;stroke-width:0.292262;stroke-linecap:round;stroke-linejoin:round"
       inkscape:label="rect1"
       d="m 135.01351,116.39587 h 16.3765 a 4.2333332,4.2333332 45 0 1 4.23333,4.23333 v 16.37649 a 4.2333332,4.2333332 135 0 1 -4.23333,4.23333 h -16.3765 a 4.2333332,4.2333332 45 0 1 -4.23333,-4.23333 V 120.6292 a 4.2333332,4.2333332 135 0 1 4.23333,-4.23333 z m -6.32524,7.46375 c -3.54519,0.61305 -7.43432,1.5967 -11.60808,2.86494 -2.01718,0.61294 -4.09655,1.29454 -6.22081,2.03864 -0.96753,3.18933 -2.01691,6.46883 -3.13676,9.8149 -0.0499,0.14916 -0.0997,0.29861 -0.14986,0.44804 4.1731,-1.63941 8.21292,-3.05802 11.97033,-4.19974 3.3048,-1.0042 6.40492,-1.78735 9.14518,-2.32958 z m -33.114259,11.00502 c -8.470843,3.77616 -17.03181,8.23676 -24.780916,13.04726 -0.806001,0.50035 -1.603308,1.00456 -2.390552,1.51205 -0.05696,2.53728 0.02413,5.15737 0.259416,7.86102 0.05816,0.66832 0.12655,1.34215 0.204638,2.02159 2.029361,-1.41647 4.169387,-2.82195 6.391342,-4.2013 5.149202,-3.19652 10.74194,-6.25858 16.427421,-9.05371 1.360251,-3.77529 2.658796,-7.51944 3.888651,-11.18691 z m 41.036769,8.46666 c -3.11945,6.38445 -8.80261,13.57579 -16.40778,20.59668 -8.82607,8.14799 -19.87563,16.01493 -31.19913,22.58467 h -5.17e-4 l -7.281209,13.5847 c 15.659234,-7.78624 31.769426,-18.45025 44.225206,-29.94908 9.30056,-8.58603 16.89318,-17.65129 20.17448,-26.81697 z m -80.594561,15.13086 c -1.472612,1.24131 -2.863635,2.49476 -4.160986,3.75843 -5.105008,4.97249 -8.916493,10.07336 -10.06812,15.79697 -1.151626,5.72361 1.351848,11.88031 6.935494,15.92409 2.602463,1.88475 5.804005,3.49048 9.706901,4.8581 2.702821,-1.14648 5.510657,-2.32425 8.3752,-3.5636 -0.523661,-1.09238 -1.028074,-2.17878 -1.513086,-3.25975 -5.409801,-1.47445 -9.247945,-3.18595 -11.603943,-4.89221 -3.706363,-2.68421 -4.182462,-4.50051 -3.59978,-7.39645 0.571787,-2.8418 3.120599,-6.90616 7.427453,-11.15953 -0.714459,-3.43977 -1.211524,-6.79677 -1.499133,-10.06605 z" />
  </g>
</svg>
